<mxfile host="app.diagrams.net" modified="2023-05-26T14:23:25.783Z" agent="Mozilla/5.0 (Macintosh; Intel Mac OS X 10_15_7) AppleWebKit/537.36 (KHTML, like Gecko) Chrome/113.0.0.0 Safari/537.36" version="21.3.2" etag="kpQKcu2uINRoHEo7knwe" type="github">
  <diagram name="Page-1" id="BdaRvpOK0Y8TsUlo1akC">
    <mxGraphModel>
      <root>
        <mxCell id="0" />
        <mxCell id="1" parent="0" />
      </root>
    </mxGraphModel>
  </diagram>
</mxfile>
